<svg xmlns="http://www.w3.org/2000/svg" xmlns:xlink="http://www.w3.org/1999/xlink" width="500" zoomAndPan="magnify" viewBox="0 0 375 374.999991" height="500" preserveAspectRatio="xMidYMid meet" version="1.0"><defs><g/><clipPath id="80247b3adf"><rect x="0" width="32" y="0" height="94"/></clipPath></defs><rect x="-37.5" width="450" fill="#ffffff" y="-37.499999" height="449.999989" fill-opacity="1"/><rect x="-37.5" width="450" fill="#ffffff" y="-37.499999" height="449.999989" fill-opacity="1"/><g transform="matrix(1, 0, 0, 1, 70, 141)"><g clip-path="url(#80247b3adf)"><g fill="#7ed957" fill-opacity="1"><g transform="translate(0.122349, 74.098598)"><g><path d="M 11.84375 16.984375 L 6.4375 8.3125 C 9.113281 6.625 10.828125 5.378906 11.578125 4.578125 C 12.691406 3.453125 13.3125 1.925781 13.4375 0 L 4.671875 0 L 4.671875 -21 L 28.28125 -21 C 28.832031 -18.070312 29.21875 -15.316406 29.4375 -12.734375 C 29.65625 -10.148438 29.734375 -7.863281 29.671875 -5.875 C 29.609375 -3.820312 29.375 -1.925781 28.96875 -0.1875 C 28.5625 1.550781 28.082031 3.078125 27.53125 4.390625 C 26.96875 5.691406 26.21875 6.914062 25.28125 8.0625 C 24.351562 9.21875 23.453125 10.203125 22.578125 11.015625 C 22.265625 11.453125 21.546875 12.007812 20.421875 12.6875 C 19.304688 13.375 17.988281 14.101562 16.46875 14.875 C 14.945312 15.65625 13.40625 16.359375 11.84375 16.984375 Z M 11.84375 16.984375 "/></g></g></g></g></g><g fill="#302f3b" fill-opacity="1"><g transform="translate(101.682917, 214.68996)"><g><path d="M 6.15625 -9.6875 L 22.015625 -9.6875 L 22.015625 -51.9375 L 9.6875 -51.9375 L 9.6875 -61.625 L 32.578125 -61.625 L 32.578125 -9.6875 L 47.53125 -9.6875 L 47.53125 0 L 6.15625 0 Z M 6.15625 -9.6875 "/></g></g></g><g fill="#302f3b" fill-opacity="1"><g transform="translate(150.539744, 214.68996)"><g><path d="M 22.015625 0.875 C 16.492188 0.875 12.320312 -0.441406 9.5 -3.078125 C 6.6875 -5.722656 5.28125 -9.242188 5.28125 -13.640625 C 5.28125 -18.046875 6.757812 -21.566406 9.71875 -24.203125 C 12.6875 -26.847656 17.367188 -28.171875 23.765625 -28.171875 L 35.21875 -28.171875 L 35.21875 -30.375 C 35.21875 -32.363281 34.394531 -34.109375 32.75 -35.609375 C 31.101562 -37.109375 28.84375 -37.859375 25.96875 -37.859375 C 23.5 -37.859375 21.546875 -37.328125 20.109375 -36.265625 C 18.671875 -35.210938 17.835938 -34.128906 17.609375 -33.015625 L 7.046875 -33.015625 C 7.273438 -34.890625 7.816406 -36.691406 8.671875 -38.421875 C 9.523438 -40.148438 10.726562 -41.691406 12.28125 -43.046875 C 13.832031 -44.398438 15.78125 -45.484375 18.125 -46.296875 C 20.476562 -47.117188 23.238281 -47.53125 26.40625 -47.53125 C 32.570312 -47.53125 37.34375 -45.914062 40.71875 -42.6875 C 44.09375 -39.46875 45.78125 -35.21875 45.78125 -29.9375 L 45.78125 0 L 36.96875 0 L 35.65625 -5.71875 L 35.21875 -5.71875 C 34.75 -5.070312 34.160156 -4.351562 33.453125 -3.5625 C 32.742188 -2.769531 31.847656 -2.050781 30.765625 -1.40625 C 29.679688 -0.757812 28.421875 -0.21875 26.984375 0.21875 C 25.546875 0.65625 23.890625 0.875 22.015625 0.875 Z M 23.765625 -8.796875 C 25.523438 -8.796875 27.109375 -9.046875 28.515625 -9.546875 C 29.929688 -10.046875 31.132812 -10.722656 32.125 -11.578125 C 33.125 -12.429688 33.890625 -13.414062 34.421875 -14.53125 C 34.953125 -15.644531 35.21875 -16.816406 35.21875 -18.046875 L 35.21875 -19.359375 L 23.765625 -19.359375 C 20.890625 -19.359375 18.847656 -18.859375 17.640625 -17.859375 C 16.441406 -16.867188 15.84375 -15.609375 15.84375 -14.078125 C 15.84375 -12.554688 16.441406 -11.296875 17.640625 -10.296875 C 18.847656 -9.296875 20.890625 -8.796875 23.765625 -8.796875 Z M 23.765625 -8.796875 "/></g></g></g><g fill="#302f3b" fill-opacity="1"><g transform="translate(199.396572, 214.68996)"><g><path d="M 29.9375 0.875 C 28.289062 0.875 26.757812 0.640625 25.34375 0.171875 C 23.9375 -0.296875 22.691406 -0.851562 21.609375 -1.5 C 20.523438 -2.144531 19.644531 -2.773438 18.96875 -3.390625 C 18.289062 -4.003906 17.835938 -4.488281 17.609375 -4.84375 L 17.171875 -4.84375 L 16.28125 0 L 7.046875 0 L 7.046875 -61.625 L 17.609375 -61.625 L 17.609375 -42.25 L 18.046875 -42.25 C 18.398438 -42.601562 18.898438 -43.070312 19.546875 -43.65625 C 20.191406 -44.25 21.007812 -44.820312 22 -45.375 C 23 -45.9375 24.160156 -46.4375 25.484375 -46.875 C 26.804688 -47.3125 28.289062 -47.53125 29.9375 -47.53125 C 32.6875 -47.53125 35.21875 -47.03125 37.53125 -46.03125 C 39.851562 -45.039062 41.851562 -43.546875 43.53125 -41.546875 C 45.207031 -39.554688 46.515625 -37.035156 47.453125 -33.984375 C 48.390625 -30.929688 48.859375 -27.378906 48.859375 -23.328125 C 48.859375 -19.273438 48.390625 -15.722656 47.453125 -12.671875 C 46.515625 -9.617188 45.207031 -7.09375 43.53125 -5.09375 C 41.851562 -3.101562 39.851562 -1.609375 37.53125 -0.609375 C 35.21875 0.378906 32.6875 0.875 29.9375 0.875 Z M 27.734375 -8.796875 C 29.140625 -8.796875 30.488281 -9.101562 31.78125 -9.71875 C 33.070312 -10.34375 34.203125 -11.253906 35.171875 -12.453125 C 36.140625 -13.660156 36.898438 -15.171875 37.453125 -16.984375 C 38.015625 -18.804688 38.296875 -20.921875 38.296875 -23.328125 C 38.296875 -25.734375 38.015625 -27.84375 37.453125 -29.65625 C 36.898438 -31.476562 36.140625 -32.988281 35.171875 -34.1875 C 34.203125 -35.394531 33.070312 -36.304688 31.78125 -36.921875 C 30.488281 -37.546875 29.140625 -37.859375 27.734375 -37.859375 C 24.617188 -37.859375 22.078125 -36.65625 20.109375 -34.25 C 18.148438 -31.84375 17.171875 -28.203125 17.171875 -23.328125 C 17.171875 -18.453125 18.148438 -14.8125 20.109375 -12.40625 C 22.078125 -10 24.617188 -8.796875 27.734375 -8.796875 Z M 27.734375 -8.796875 "/></g></g></g><g fill="#302f3b" fill-opacity="1"><g transform="translate(248.253399, 214.68996)"><g><path d="M 26.40625 0.875 C 23 0.875 19.972656 0.421875 17.328125 -0.484375 C 14.691406 -1.390625 12.460938 -2.601562 10.640625 -4.125 C 8.828125 -5.65625 7.4375 -7.390625 6.46875 -9.328125 C 5.5 -11.265625 4.957031 -13.289062 4.84375 -15.40625 L 15.84375 -15.40625 C 16.082031 -14.519531 16.4375 -13.679688 16.90625 -12.890625 C 17.375 -12.097656 18.03125 -11.394531 18.875 -10.78125 C 19.726562 -10.164062 20.800781 -9.679688 22.09375 -9.328125 C 23.382812 -8.972656 24.96875 -8.796875 26.84375 -8.796875 C 33.007812 -8.796875 36.09375 -10.410156 36.09375 -13.640625 C 36.09375 -15.046875 35.34375 -16.054688 33.84375 -16.671875 C 32.351562 -17.296875 30.476562 -17.8125 28.21875 -18.21875 C 25.957031 -18.632812 23.519531 -19.0625 20.90625 -19.5 C 18.289062 -19.9375 15.851562 -20.664062 13.59375 -21.6875 C 11.34375 -22.71875 9.46875 -24.1875 7.96875 -26.09375 C 6.46875 -28.007812 5.71875 -30.609375 5.71875 -33.890625 C 5.71875 -35.765625 6.128906 -37.523438 6.953125 -39.171875 C 7.773438 -40.816406 9.003906 -42.253906 10.640625 -43.484375 C 12.285156 -44.722656 14.351562 -45.707031 16.84375 -46.4375 C 19.34375 -47.164062 22.238281 -47.53125 25.53125 -47.53125 C 28.582031 -47.53125 31.335938 -47.164062 33.796875 -46.4375 C 36.265625 -45.707031 38.363281 -44.679688 40.09375 -43.359375 C 41.820312 -42.035156 43.171875 -40.445312 44.140625 -38.59375 C 45.109375 -36.75 45.65625 -34.742188 45.78125 -32.578125 L 34.765625 -32.578125 C 34.535156 -33.335938 34.210938 -34.039062 33.796875 -34.6875 C 33.390625 -35.332031 32.816406 -35.890625 32.078125 -36.359375 C 31.347656 -36.828125 30.410156 -37.191406 29.265625 -37.453125 C 28.117188 -37.722656 26.726562 -37.859375 25.09375 -37.859375 C 22.625 -37.859375 20.609375 -37.519531 19.046875 -36.84375 C 17.492188 -36.164062 16.71875 -35.066406 16.71875 -33.546875 C 16.71875 -32.078125 17.46875 -31.003906 18.96875 -30.328125 C 20.46875 -29.648438 22.347656 -29.117188 24.609375 -28.734375 C 26.867188 -28.359375 29.300781 -27.960938 31.90625 -27.546875 C 34.519531 -27.140625 36.957031 -26.4375 39.21875 -25.4375 C 41.476562 -24.4375 43.351562 -23.023438 44.84375 -21.203125 C 46.34375 -19.390625 47.09375 -16.867188 47.09375 -13.640625 C 47.09375 -12.003906 46.800781 -10.316406 46.21875 -8.578125 C 45.632812 -6.847656 44.5625 -5.28125 43 -3.875 C 41.445312 -2.46875 39.332031 -1.320312 36.65625 -0.4375 C 33.988281 0.4375 30.570312 0.875 26.40625 0.875 Z M 26.40625 0.875 "/></g></g></g></svg>
